<svg xmlns="http://www.w3.org/2000/svg" width="256" height="256"><path fill-opacity=".016" d="M0 128.004v128.004l128.25-.254 128.25-.254.254-127.75L257.008 0H0v128.004m.485.496c0 70.4.119 99.053.265 63.672.146-35.38.146-92.98 0-128C.604 29.153.485 58.1.485 128.5" fill="#212121" fill-rule="evenodd"/><path fill-opacity=".127" d="M70 13.13c-28.344 2.881-50.847 10.345-58.952 19.553-2.104 2.39-3.998 5.577-4.208 7.081-.323 2.306 3.051 124.107 4.397 158.736.726 18.693 6.151 26.563 23.42 33.981 35.562 15.278 85.124 15.278 120.686 0 15.877-6.82 22.348-15.235 23.392-30.416l.52-7.565 8.622-.225c28.028-.73 50.189-15.861 58.073-39.65 4.401-13.28 4.423-33.733.05-47.89-5.334-17.269-20.397-30.207-39.353-33.802-2.706-.513-9.246-.932-14.533-.932l-9.614.002.313-16.761c.301-16.148.228-16.887-2.017-20.251-9.283-13.909-44.853-23.232-87.22-22.858-8.292.073-18.901.522-23.576.997m-6.5 7.373c-26.638 3.741-46.608 11.521-49.658 19.345-1.614 4.142 1.49 8.893 8.169 12.504l5.511 2.979L32.98 51.2c6.408-4.85 15.469-8.416 27.71-10.904 7.141-1.451 13.641-1.783 34.31-1.753 22.586.032 26.7.294 36 2.288 11.564 2.48 22.711 7.22 28.096 11.949l3.493 3.066 5.191-2.997c5.964-3.444 9.22-7.119 9.22-10.407 0-7.749-17.538-16.104-44-20.961-12.975-2.382-55.265-2.977-69.5-.978M15.747 127.926c1.236 39.915 2.506 74.934 2.822 77.818.948 8.667 5.207 13.902 15.431 18.966 17.287 8.563 36.89 12.618 61 12.618 23.53 0 42.717-3.875 60.495-12.218 8.854-4.155 13.754-8.839 15.527-14.843.676-2.288 1.97-33.451 3.296-79.341l2.182-75.574-7 3.736c-34.646 18.49-114.357 18.49-149-.001l-7-3.736 2.247 72.575m166.242-39.77c-.006 5.139-.29 11.032-.631 13.094-.854 5.165 1.205 4.967 7.625-.735 5.735-5.093 8.244-6.025 16.017-5.95 12.088.116 19.53 5.786 23.124 17.616 2.907 9.572 2.366 31.324-.994 39.964-4.243 10.911-11.925 18.371-21.615 20.99-4.869 1.316-12.274-.115-16.624-3.213-1.594-1.135-4.185-2.433-5.758-2.884l-2.858-.82-.637 7.542c-.351 4.148-.638 9.049-.638 10.891V188l7.25-.017c15.661-.038 31.474-5.826 41.298-15.116 12.836-12.141 18.339-34.605 14.013-57.212-2.98-15.574-10.534-26.06-23.333-32.389-7.576-3.746-7.691-3.768-21.922-4.11L182 78.812l-.011 9.344m16.205 13.896c-1.269.509-3.768 2.475-5.554 4.368-1.786 1.894-4.573 3.737-6.194 4.095-1.62.359-3.508.825-4.196 1.037-.931.287-1.252 4.418-1.256 16.167-.003 8.679-.295 19.494-.648 24.031-.632 8.11-.604 8.25 1.639 8.25 1.255 0 5.466 1.623 9.358 3.606 8.549 4.357 13.496 4.286 20.02-.285C219.841 157.38 224 146.428 224 130.043c0-15.708-4.293-25.919-11.769-27.996-4.52-1.255-10.902-1.253-14.037.005" fill="#212121" fill-rule="evenodd"/><path fill-opacity=".347" d="M74.832 13.006c-21.263 1.921-41.016 6.473-52.705 12.147-7.12 3.456-13.743 9.469-14.721 13.366-1.066 4.248 4.361 169.47 5.704 173.655.648 2.021 2.808 5.846 4.798 8.5 6.382 8.508 25.646 16.578 50.092 20.982 13.001 2.343 40.972 2.346 54 .006 19.538-3.51 39.203-10.684 46.692-17.035 5.196-4.407 9.308-13.774 9.308-21.205 0-9.297.106-9.422 8.019-9.422 13.513 0 28.977-4.461 38.735-11.175 9.818-6.754 16.566-15.899 20.903-28.325 2.588-7.416 2.793-9.132 2.807-23.5.017-16.704-1.048-22.3-6.168-32.403-3.479-6.864-12.234-15.757-19.085-19.383C213.833 74.25 207.998 73 194.197 73h-12.44l.725-16.43c.7-15.878.649-16.564-1.528-20.437C173.349 22.6 142.59 13.577 100.5 12.53c-8.8-.218-20.351-.004-25.668.476m.136 5.938C39.59 21.919 13 32.051 13 42.558c0 3.241 3.983 7.571 9.955 10.821l5.12 2.786 4.087-3.693C43.287 42.422 70.134 37.027 102.5 38.34c29.189 1.183 47.686 6.119 56.696 15.128l2.65 2.651 4.327-2.167C172.787 50.639 177 46.183 177 42.5c0-8.719-19.738-17.669-48.5-21.992-12.164-1.828-40.53-2.657-53.532-1.564M13.489 68.25c.328 7.287 1.486 41.375 2.571 75.75 2.225 70.438 2.084 69.316 9.482 75.828 8.08 7.112 28.339 14.076 48.846 16.79 22.572 2.988 47.918.699 68.518-6.188 17.711-5.921 24.846-10.751 28.233-19.112 1.042-2.572 6.315-155.197 5.394-156.118-.189-.19-2.283.88-4.654 2.376-14.544 9.182-43.535 14.74-76.879 14.74-33.235 0-62.34-5.561-76.765-14.668C15.928 56.192 13.781 55 13.465 55c-.316 0-.305 5.962.024 13.25m168.164 18.331c-.359 4.247-.653 10.128-.653 13.07 0 4.717.241 5.349 2.04 5.349 1.121 0 3.81-1.807 5.975-4.015 4.912-5.012 7.446-5.985 15.582-5.985 16.567 0 24.129 9.479 25.129 31.5.79 17.386-2.616 29.628-10.528 37.836-9.055 9.394-19.263 11.123-30.492 5.164-9.887-5.247-9.706-5.387-9.706 7.5v11l2.75.082c19.942.594 35.689-4.738 46.798-15.847 5.931-5.932 10.562-14.417 12.93-23.695 1.973-7.728 1.982-26.963.016-35.3-3.272-13.881-11.571-24.688-23.455-30.545-6.26-3.086-6.983-3.206-21.108-3.515l-14.626-.319-.652 7.72m11.4 18.966c-3.123 2.921-6.093 4.747-8.304 5.106l-3.442.559-.651 17.144c-.357 9.429-.651 20.371-.653 24.315l-.003 7.17 3.25.685c1.787.377 5.555 1.988 8.372 3.58 9.214 5.207 16.984 3.586 25.079-5.233 8.292-9.033 10.514-35.831 4.05-48.84-3.318-6.678-7.474-9.033-15.942-9.033-6.803 0-6.959.061-11.756 4.547" fill="#212121" fill-rule="evenodd"/><path fill-opacity=".588" d="M65 14.47C33.244 18.619 12.846 26.943 8.409 37.563c-1.823 4.364 2.941 166.282 5.12 174.024 3.68 13.074 18.675 21.888 48.655 28.603 9.107 2.039 12.952 2.31 32.816 2.31 19.864 0 23.709-.271 32.816-2.31C164.741 231.92 178 221.425 178 200.47v-6.168l9.75-.637c31.909-2.083 51.61-16.712 58.954-43.778 2.385-8.786 2.331-29.887-.098-38.807-5.202-19.099-17.767-31.761-36.309-36.591-3.43-.893-10.235-1.489-17.007-1.489H182V55.95c0-18.76-.449-20.625-6.107-25.386-7.189-6.05-21.83-11.329-40.873-14.74-14.969-2.681-54.081-3.437-70.02-1.354m4.616 4.565c-38.379 4.351-61.887 15.67-55.785 26.859 1.811 3.321 6.594 7.211 11.223 9.128 2.673 1.108 3.216.948 6.46-1.9C42.64 43.353 62.174 39.012 95 39.012c32.611 0 52.471 4.438 63.607 14.216l3.663 3.216 5.615-3.047C173.111 50.562 178 45.295 178 42.5c0-2.825-4.926-8.059-10.455-11.11C152.4 23.034 130.722 18.915 99.5 18.461c-12.1-.175-25.548.083-29.884.574M13.044 61.823c.024 4.222 1.073 38.952 2.331 77.177 2.522 76.638 2.163 73.471 9.134 80.442 5.522 5.522 21.666 12.077 39.51 16.042 4.693 1.042 14.376 1.867 25.981 2.213 22.226.663 34.45-.906 52.065-6.683 14.393-4.72 20.755-7.906 24.652-12.345 6.168-7.025 6.044-5.779 8.263-83.169 1.12-39.05 2.033-73.343 2.028-76.207L177 54.085l-5.75 3.415c-7.73 4.59-21.195 8.846-36.835 11.644-11.461 2.05-15.954 2.304-39.915 2.258-23.233-.045-28.674-.356-39-2.228-15.127-2.743-29.817-7.391-36.966-11.695L13 54.146l.044 7.677m168.623 16.844c-.367.366-.667 6.697-.667 14.067v13.401l2.25-.696c1.238-.383 4.329-2.627 6.871-4.987 3.556-3.301 5.706-4.453 9.328-4.997 10.625-1.593 19.898 1.869 24.518 9.154 4.078 6.43 5.485 13.231 5.462 26.391-.04 22.025-7.549 35.758-22.328 40.833-5.886 2.021-10.476 1.41-17.532-2.333-10.354-5.493-10.541-5.379-10.719 6.5-.083 5.5-.195 10.563-.25 11.25-.075.934 2.431 1.207 9.9 1.081 28.61-.482 49.414-17.1 54.067-43.187 4.574-25.649-2.752-48.774-18.918-59.71C215.542 79.948 207.786 78 194.061 78c-6.45 0-12.028.3-12.394.667m17.604 21.979c-1.226.268-3.926 2.279-6 4.469-2.46 2.597-5.233 4.349-7.976 5.04-3.937.992-4.242 1.324-4.798 5.202-.327 2.279-.46 13.319-.295 24.533l.298 20.391 4 1.214c2.2.668 6.25 2.44 9 3.938 6.115 3.331 10.572 3.041 17.351-1.13C219.794 158.8 225 146.687 225 131.385c0-14.672-3.51-25.026-9.709-28.647-3.216-1.878-11.842-3.005-16.02-2.092" fill="#212121" fill-rule="evenodd"/></svg>